<svg width="28" height="28" viewBox="0 0 28 28" fill="none" xmlns="http://www.w3.org/2000/svg">
<path d="M15.7506 13.6635L26.6593 2.74352C26.8008 2.60365 26.9132 2.43707 26.99 2.25343C27.0667 2.06979 27.1062 1.87275 27.1062 1.67373C27.1062 1.4747 27.0667 1.27766 26.99 1.09402C26.9132 0.910385 26.8008 0.743803 26.6593 0.603935C26.3742 0.322882 25.9899 0.165327 25.5896 0.165327C25.1893 0.165327 24.805 0.322882 24.5199 0.603935L13.6112 11.5239L2.69243 0.603935C2.55258 0.462349 2.38601 0.349935 2.20239 0.273212C2.01877 0.196489 1.82175 0.156982 1.62275 0.156982C1.42375 0.156982 1.22673 0.196489 1.04311 0.273212C0.859493 0.349935 0.692928 0.462349 0.553075 0.603935C0.272052 0.889073 0.114514 1.27336 0.114514 1.67373C0.114514 2.07409 0.272052 2.45838 0.553075 2.74352L11.4719 13.6635L0.553075 24.5733C0.411504 24.7132 0.299103 24.8798 0.222388 25.0634C0.145673 25.2471 0.106171 25.4441 0.106171 25.6431C0.106171 25.8421 0.145673 26.0392 0.222388 26.2228C0.299103 26.4065 0.411504 26.573 0.553075 26.7129C0.836893 26.9964 1.22162 27.1557 1.62275 27.1557C2.02388 27.1557 2.40861 26.9964 2.69243 26.7129L13.6112 15.8031L24.5199 26.7129C24.8041 26.996 25.1885 27.1555 25.5896 27.157C25.8888 27.1567 26.1812 27.0678 26.4299 26.9014C26.6785 26.7351 26.8723 26.4987 26.9868 26.2223C27.1013 25.9458 27.1312 25.6416 27.0729 25.3482C27.0146 25.0547 26.8707 24.785 26.6593 24.5733L15.7506 13.6635Z" fill="#F25B26"/>
</svg>
