<svg width="32" height="22" viewBox="0 0 32 22" fill="none" xmlns="http://www.w3.org/2000/svg">
<path d="M30.6621 0.586492C30.5196 0.450395 30.3501 0.342372 30.1633 0.268654C29.9765 0.194936 29.7762 0.156982 29.5738 0.156982C29.3715 0.156982 29.1711 0.194936 28.9843 0.268654C28.7976 0.342372 28.628 0.450395 28.4855 0.586492L10.4806 17.6527L2.68387 10.2667C2.39331 10.0102 2.009 9.8706 1.6119 9.87724C1.21481 9.88387 0.83594 10.0363 0.55511 10.3023C0.274279 10.5683 0.113416 10.9273 0.106409 11.3034C0.0994032 11.6796 0.246801 12.0437 0.51755 12.3189L9.39741 20.7311C9.53927 20.8664 9.70805 20.9737 9.89397 21.0468C10.0799 21.1199 10.2793 21.1573 10.4806 21.157C10.8867 21.1556 11.2759 21.0025 11.5637 20.7311L30.6621 2.6387C30.9466 2.36521 31.1062 1.99661 31.1062 1.6126C31.1062 1.22858 30.9466 0.859985 30.6621 0.586492Z" fill="#3DC644"/>
</svg>
